<svg width="105" height="52" viewBox="0 0 105 52" fill="none" xmlns="http://www.w3.org/2000/svg">
<g clip-path="url(#clip0_121_53)">
<path d="M41.7004 46.5256C41.7004 36.8505 41.7004 27.2608 41.7004 17.6711C41.6386 17.66 41.5769 17.6489 41.5152 17.6378C40.8779 19.3801 40.2345 21.1202 39.6043 22.865C36.5081 31.437 33.4097 40.0082 30.3354 48.588C30.1417 49.1286 29.9169 49.3478 29.3221 49.3252C28.0109 49.2755 26.6956 49.2781 25.384 49.3213C24.8242 49.3397 24.6219 49.1335 24.438 48.6236C20.1135 36.6289 15.7652 24.6428 11.4288 12.6524C11.2506 12.1597 11.1107 11.6961 10.3709 12.0748C10.3709 24.4161 10.3709 36.8048 10.3709 49.2503C8.69429 49.2503 7.08313 49.2503 5.41162 49.2503C5.41162 34.0758 5.41162 18.8974 5.41162 3.65474C8.03692 3.65474 10.6748 3.65474 13.3743 3.65474C14.4996 6.78564 15.645 9.96328 16.784 13.1432C20.1735 22.6056 23.5575 32.07 26.9615 41.5272C27.0666 41.8191 27.368 42.0406 27.5779 42.2948C27.7673 42.0569 28.0371 41.8477 28.1347 41.5768C32.577 29.2351 37.0044 16.8881 41.4315 4.54102C41.5355 4.2509 41.6151 3.95204 41.7152 3.62761C41.883 3.61399 42.0506 3.58851 42.2181 3.5885C47.7274 3.58842 53.2369 3.56034 58.7458 3.60446C61.9312 3.62997 64.9606 4.32289 67.6561 6.1239C68.1278 6.43907 68.5689 6.80001 69.0883 7.18774C70.6558 5.59906 72.5452 4.43996 74.7132 3.86246C80.428 2.34011 86.0517 2.47789 91.4474 5.14454C93.1042 5.96336 94.4517 7.19655 95.5925 8.76049C94.7924 9.84478 94.0152 10.9609 93.1676 12.0209C92.7242 12.5755 92.2432 12.37 91.8239 11.885C90.3524 10.1833 88.5406 8.98184 86.377 8.36085C82.9547 7.3786 79.5154 7.32375 76.1013 8.39085C74.5899 8.86323 73.344 9.76403 72.512 11.1344C72.3297 11.4347 72.219 11.9142 72.323 12.2297C73.0019 14.2895 73.1706 16.398 73.1427 18.5473C73.1377 18.9373 73.3456 19.4435 73.6308 19.7052C75.3483 21.2811 77.5321 21.8521 79.7189 22.4147C83.2655 23.3271 86.9027 23.9123 90.2705 25.4639C97.8959 28.977 100.056 39.2046 94.4362 45.3941C92.0646 48.0063 88.9747 49.2644 85.5614 49.7165C80.8165 50.345 76.1707 49.9727 71.7726 47.8923C69.0571 46.6078 66.8208 44.7728 65.2456 42.1777C64.9715 41.7263 64.9528 41.4223 65.3346 41.0048C66.0836 40.1859 66.7529 39.2948 67.4669 38.4433C68.06 37.7358 68.5015 37.7424 68.9848 38.4885C72.3756 43.7222 77.3881 45.45 83.3403 45.048C84.5759 44.9645 85.8291 44.7026 87.0092 44.3217C89.9902 43.3597 91.8205 40.8571 91.9756 37.7419C92.1781 33.6764 90.8532 31.4017 87.0906 29.8478C85.2626 29.0929 83.3186 28.5897 81.3941 28.1024C78.0092 27.2454 74.5577 26.6111 71.4825 24.6972C70.4446 26.5066 69.1072 27.9609 67.3891 29.0492C64.7028 30.7509 61.7112 31.3666 58.5906 31.4213C55.1092 31.4824 51.6263 31.4601 48.144 31.4738C47.8355 31.475 47.5271 31.474 47.139 31.474C47.139 37.4509 47.139 43.365 47.139 49.3094C45.3012 49.3094 43.5441 49.3094 41.7004 49.3094C41.7004 48.3665 41.7004 47.4887 41.7004 46.5256ZM52.6215 20.7628C52.6721 20.7949 52.7226 20.827 52.7583 20.8661C52.7583 20.8661 52.7688 20.8536 52.7548 20.9873C52.7612 21.0992 52.7305 21.2319 52.7797 21.3199C53.3882 22.4074 54.0065 23.4895 54.6332 24.5665C54.6546 24.6032 54.7916 24.5729 54.8379 24.5684C54.8379 24.5684 54.8733 24.5795 54.8566 24.6708C54.8972 24.7141 54.9379 24.7573 55.0157 24.8549C55.0157 24.8549 55.0152 24.9207 54.9945 25.063C55.1989 25.9798 55.3254 26.9344 56.2807 27.5929C56.3111 27.6571 56.3414 27.7214 56.3958 27.8346L56.4714 27.8383C56.4714 27.8383 56.5121 27.7726 56.5317 27.6715C56.5745 27.6203 56.6173 27.569 56.785 27.5175C56.8644 27.447 56.973 27.3916 57.0186 27.3036C57.4686 26.4364 57.958 25.5846 58.3357 24.6863C58.6773 23.874 58.8936 23.0091 59.1792 22.1541C59.1792 22.1541 59.1812 22.1348 59.3128 22.1939C60.1569 22.0825 59.9742 21.3735 60.1164 20.8693C60.1164 20.8693 60.0967 20.8471 60.2167 20.8507C60.2895 20.7313 60.3623 20.6119 60.4663 20.5218C60.4663 20.5218 60.4333 20.4947 60.5625 20.5164C60.6468 20.5102 60.7469 20.5314 60.8132 20.4936C62.2626 19.6683 63.7108 18.8407 65.1503 17.9984C65.275 17.9255 65.3382 17.7479 65.4693 17.5775C65.4693 17.5775 65.5265 17.5772 65.6711 17.604C66.3693 17.5167 67.0732 17.4411 67.491 16.7489C67.491 16.7489 67.4537 16.724 67.5915 16.7487C68.1858 16.6633 68.1273 16.1322 67.842 16.0098C67.0198 15.6571 66.1241 15.4754 65.2608 15.2234C65.2608 15.2234 65.2587 15.2274 65.2467 15.1053C64.5082 14.8034 63.7697 14.5015 63.0341 14.1972C63.0341 14.1972 63.0324 14.2002 63.0246 14.0805C62.3717 13.5759 61.7217 13.0674 61.0572 12.5784C61.0256 12.5552 60.8659 12.7054 60.6632 12.7385C60.5956 12.6566 60.5279 12.5747 60.4685 12.3612C60.011 11.578 59.5694 10.7848 59.0877 10.0167C58.9069 9.72844 58.6326 9.49862 58.41 9.23788C58.41 9.23788 58.4029 9.24505 58.4152 9.11266C58.2452 8.81188 58.0752 8.51111 57.8599 8.17085C57.8599 8.17085 57.8573 8.1109 57.8841 7.97162C57.7682 7.76809 57.6524 7.56457 57.498 7.32848C57.498 7.32848 57.5009 7.27814 57.5327 7.14354C57.3781 6.87058 57.2235 6.59763 57.0271 6.26213C57.0271 6.26213 57.0209 6.18716 57.0453 6.0709C57.1012 5.72295 57.2689 5.30876 56.6428 5.36086C56.6428 5.36086 56.6262 5.35763 56.6449 5.26795C56.6018 5.23016 56.5587 5.19236 56.4363 5.13249C56.4363 5.13249 56.3561 5.1509 56.2678 5.19171C56.2524 5.25219 56.2371 5.31267 56.2164 5.43379C56.2164 5.43379 56.1709 5.47433 56.0485 5.48309C55.2182 6.01529 55.2998 6.90576 55.1558 7.69814C55.1558 7.69814 55.1725 7.71007 55.0506 7.71799C54.5101 8.3585 54.0207 9.02007 54.1209 10.0285C54.0623 10.1065 54.0037 10.1845 53.8199 10.2755C53.6973 10.5598 53.5746 10.8441 53.4419 11.1187C53.4419 11.1187 53.453 11.1272 53.3327 11.1285C52.8035 11.7593 52.2743 12.3902 51.7323 13.0059C51.7323 13.0059 51.7504 13.014 51.6615 13.0291C51.6268 13.0759 51.592 13.1227 51.5579 13.171C51.5579 13.171 51.5565 13.1701 51.4195 13.163C51.1413 13.2648 50.8518 13.3435 50.5872 13.4729C49.8279 13.8439 49.0885 14.2561 48.3233 14.614C47.3058 15.0898 46.2646 15.5159 45.2531 16.0036C45.1354 16.0603 45.141 16.3725 45.1628 16.5738C45.1628 16.5738 45.2221 16.6175 45.2329 16.7366C45.4645 17.3968 46.1039 17.3433 46.6083 17.5639C47.6929 18.0383 48.7279 18.6248 49.8052 19.1176C50.1252 19.2639 50.5184 19.2508 50.9786 19.3262C51.0568 19.3872 51.1349 19.4483 51.2122 19.6369C51.5054 19.8132 51.7986 19.9894 52.0722 20.1836C52.0722 20.1836 52.09 20.1639 52.0785 20.2959C52.2559 20.4229 52.4333 20.5498 52.5929 20.6924C52.5929 20.6924 52.6037 20.6713 52.6215 20.7628Z" fill="#222222"/>
<path d="M45.2222 16.6176C45.2222 16.6176 45.1628 16.574 45.1548 16.5218C45.6553 16.2221 46.1695 15.9855 46.6712 15.725C48.3021 14.8781 49.9284 14.0225 51.5565 13.1702C51.5565 13.1702 51.5579 13.1712 51.6046 13.1664C51.6844 13.1124 51.7174 13.0633 51.7505 13.0141C51.7505 13.0141 51.7323 13.0061 51.7969 13.0055C52.392 12.3791 52.9225 11.7532 53.453 11.1273C53.453 11.1273 53.4419 11.1188 53.4978 11.0983C53.6843 10.806 53.8147 10.5344 53.9452 10.2627C54.0038 10.1847 54.0624 10.1067 54.1779 9.94789C54.5474 9.14817 54.8599 8.42919 55.1725 7.7102C55.1725 7.7102 55.1558 7.69828 55.2125 7.67188C55.5697 6.92181 55.8703 6.19814 56.1709 5.47447C56.1709 5.47447 56.2164 5.43393 56.26 5.38009C56.3211 5.26785 56.3386 5.20944 56.3561 5.15104C56.3561 5.15104 56.4363 5.13263 56.476 5.18567C56.5294 5.29975 56.5662 5.33944 56.6262 5.35777C56.6262 5.35777 56.6428 5.361 56.6414 5.4236C56.7669 5.71991 56.8939 5.9536 57.0209 6.1873C57.0209 6.1873 57.0271 6.26227 57.0448 6.35249C57.2087 6.72124 57.3548 6.99976 57.5009 7.27828C57.5009 7.27828 57.498 7.32862 57.5149 7.40478C57.6403 7.69098 57.7488 7.90101 57.8574 8.11104C57.8574 8.11104 57.8599 8.17099 57.8826 8.25031C58.0711 8.63482 58.237 8.94001 58.4029 9.24519C58.4029 9.24519 58.4101 9.23802 58.4071 9.30222C59.0895 10.4086 59.7749 11.4507 60.4603 12.4929C60.5279 12.5748 60.5956 12.6567 60.7354 12.806C61.5491 13.3156 62.2908 13.758 63.0325 14.2004C63.0325 14.2004 63.0342 14.1973 63.0644 14.2486C63.816 14.6091 64.5374 14.9183 65.2587 15.2276C65.2587 15.2276 65.2608 15.2235 65.2904 15.276C65.9782 15.6254 66.6448 15.9057 67.2863 16.2349C67.3969 16.2916 67.4006 16.5558 67.4537 16.7242C67.4537 16.7242 67.491 16.749 67.4112 16.7389C66.7297 17.0117 66.1282 17.2945 65.5266 17.5773C65.5266 17.5773 65.4694 17.5776 65.3866 17.598C64.8628 17.815 64.3935 17.9658 63.9862 18.2168C62.7887 18.9548 61.6158 19.7326 60.4333 20.4948C60.4333 20.4948 60.4664 20.5219 60.3999 20.5193C60.2545 20.6268 60.1756 20.737 60.0967 20.8472C60.0967 20.8472 60.1164 20.8695 60.0537 20.8768C59.721 21.301 59.4511 21.718 59.1812 22.1349C59.1812 22.1349 59.1792 22.1542 59.1283 22.1943C58.2717 23.9955 57.4659 25.7567 56.6602 27.5179C56.6174 27.5692 56.5745 27.6204 56.4867 27.722C56.4416 27.7724 56.3718 27.7859 56.3718 27.7859C56.3414 27.7216 56.3111 27.6573 56.2353 27.4978C55.7983 26.5754 55.4067 25.7481 55.0152 24.9209C55.0152 24.9209 55.0157 24.8551 55.0049 24.782C54.9538 24.6658 54.9136 24.6227 54.8733 24.5796C54.8733 24.5796 54.838 24.5686 54.8526 24.509C54.1678 23.2509 53.4683 22.0523 52.7688 20.8537C52.7688 20.8537 52.7583 20.8663 52.7585 20.8161C52.707 20.7344 52.6554 20.7029 52.6037 20.6715C52.6037 20.6715 52.5929 20.6926 52.5887 20.6323C52.4197 20.436 52.2549 20.3 52.09 20.164C52.09 20.164 52.0722 20.1837 52.0627 20.1215C51.7731 19.876 51.4931 19.6928 51.2131 19.5096C51.135 19.4485 51.0568 19.3874 50.8999 19.2684C48.9549 18.3463 47.0885 17.482 45.2222 16.6176Z" fill="#00B8F0"/>
<path d="M51.488 13.1667C49.9284 14.0225 48.3021 14.8781 46.6712 15.725C46.1695 15.9855 45.6553 16.2222 45.1182 16.5181C45.141 16.3726 45.1353 16.0605 45.2531 16.0037C46.2646 15.5161 47.3058 15.09 48.3233 14.6141C49.0884 14.2563 49.8279 13.8441 50.5872 13.473C50.8518 13.3437 51.1413 13.265 51.488 13.1667Z" fill="#04162C"/>
<path d="M45.2275 16.6772C47.0885 17.482 48.9549 18.3463 50.8496 19.2608C50.5184 19.2509 50.1252 19.2641 49.8052 19.1178C48.7279 18.625 47.6929 18.0384 46.6083 17.5641C46.1039 17.3435 45.4645 17.397 45.2275 16.6772Z" fill="#04162C"/>
<path d="M60.4979 20.5056C61.6158 19.7325 62.7887 18.9547 63.9862 18.2167C64.3935 17.9657 64.8628 17.8149 65.3669 17.6187C65.3382 17.7479 65.275 17.9255 65.1504 17.9985C63.7108 18.8407 62.2627 19.6684 60.8133 20.4937C60.7469 20.5315 60.6469 20.5102 60.4979 20.5056Z" fill="#04162C"/>
<path d="M56.7226 27.5177C57.4659 25.7567 58.2717 23.9955 59.1213 22.2009C58.8936 23.0092 58.6773 23.8741 58.3358 24.6864C57.958 25.5847 57.4686 26.4365 57.0187 27.3038C56.973 27.3917 56.8644 27.4471 56.7226 27.5177Z" fill="#04162C"/>
<path d="M52.7618 20.9204C53.4683 22.0521 54.1678 23.2507 54.871 24.5116C54.7916 24.5729 54.6547 24.6032 54.6333 24.5665C54.0065 23.4895 53.3882 22.4074 52.7798 21.3199C52.7305 21.2319 52.7613 21.0992 52.7618 20.9204Z" fill="#04162C"/>
<path d="M60.4644 12.4269C59.7749 11.4506 59.0895 10.4084 58.4025 9.3042C58.6326 9.4986 58.9069 9.72843 59.0877 10.0167C59.5694 10.7847 60.011 11.5779 60.4644 12.4269Z" fill="#04162C"/>
<path d="M67.5226 16.7365C67.4006 16.5558 67.3969 16.2917 67.2863 16.235C66.6448 15.9058 65.9782 15.6254 65.2886 15.2776C66.1241 15.4755 67.0199 15.6573 67.8421 16.01C68.1273 16.1324 68.1858 16.6635 67.5226 16.7365Z" fill="#04162C"/>
<path d="M63.0286 14.1405C62.2908 13.758 61.5491 13.3156 60.7867 12.8241C60.8659 12.7055 61.0256 12.5553 61.0572 12.5786C61.7217 13.0675 62.3718 13.576 63.0286 14.1405Z" fill="#04162C"/>
<path d="M53.3929 11.1279C52.9225 11.7532 52.392 12.379 51.8033 13.013C52.2744 12.3903 52.8036 11.7594 53.3929 11.1279Z" fill="#04162C"/>
<path d="M55.0048 24.9919C55.4067 25.7481 55.7983 26.5754 56.1922 27.4656C55.3254 26.9345 55.1989 25.9799 55.0048 24.9919Z" fill="#04162C"/>
<path d="M56.1097 5.47876C55.8703 6.19805 55.5697 6.92172 55.2195 7.67927C55.2998 6.90581 55.2183 6.01534 56.1097 5.47876Z" fill="#04162C"/>
<path d="M55.1115 7.71411C54.8599 8.42914 54.5474 9.14812 54.1846 9.89896C54.0206 9.02016 54.5101 8.35858 55.1115 7.71411Z" fill="#04162C"/>
<path d="M65.2527 15.1665C64.5373 14.9183 63.816 14.6091 63.0629 14.2498C63.7698 14.5016 64.5082 14.8035 65.2527 15.1665Z" fill="#04162C"/>
<path d="M59.247 22.1644C59.4511 21.7179 59.721 21.301 60.0456 20.8643C59.9741 21.3736 60.1569 22.0826 59.247 22.1644Z" fill="#04162C"/>
<path d="M65.5988 17.5907C66.1281 17.2944 66.7297 17.0116 67.394 16.7244C67.0732 17.4412 66.3692 17.5168 65.5988 17.5907Z" fill="#04162C"/>
<path d="M51.2126 19.5732C51.4931 19.6927 51.7731 19.8759 52.0725 20.1125C51.7986 19.9895 51.5054 19.8132 51.2126 19.5732Z" fill="#04162C"/>
<path d="M58.4091 9.17896C58.237 8.93998 58.0711 8.63479 57.9052 8.27002C58.0752 8.51121 58.2452 8.81199 58.4091 9.17896Z" fill="#04162C"/>
<path d="M53.8826 10.269C53.8147 10.5343 53.6842 10.8059 53.5029 11.1031C53.5746 10.8442 53.6973 10.5598 53.8826 10.269Z" fill="#04162C"/>
<path d="M57.0331 6.12902C56.8939 5.95345 56.7669 5.71975 56.6351 5.42915C57.2689 5.30875 57.1012 5.72294 57.0331 6.12902Z" fill="#04162C"/>
<path d="M57.5168 7.21101C57.3548 6.99979 57.2086 6.72126 57.0657 6.38379C57.2235 6.59779 57.3781 6.87075 57.5168 7.21101Z" fill="#04162C"/>
<path d="M52.0842 20.23C52.2548 20.2999 52.4196 20.4359 52.5976 20.6244C52.4333 20.5499 52.2559 20.4229 52.0842 20.23Z" fill="#04162C"/>
<path d="M57.8707 8.04123C57.7488 7.90084 57.6402 7.69081 57.5341 7.4209C57.6524 7.56454 57.7682 7.76807 57.8707 8.04123Z" fill="#04162C"/>
<path d="M60.1567 20.8491C60.1756 20.7371 60.2544 20.6269 60.3842 20.5046C60.3623 20.612 60.2895 20.7315 60.1567 20.8491Z" fill="#04162C"/>
<path d="M54.865 24.6251C54.9136 24.6226 54.9539 24.6656 54.9863 24.7546C54.9379 24.7573 54.8973 24.714 54.865 24.6251Z" fill="#04162C"/>
<path d="M56.3838 27.8102C56.3718 27.7857 56.4416 27.7723 56.4769 27.7725C56.5121 27.7726 56.4714 27.8383 56.4714 27.8383C56.4714 27.8383 56.3959 27.8346 56.3838 27.8102Z" fill="#04162C"/>
<path d="M52.6126 20.7172C52.6553 20.7029 52.7069 20.7344 52.7658 20.8125C52.7226 20.8272 52.672 20.7951 52.6126 20.7172Z" fill="#04162C"/>
<path d="M51.706 13.0215C51.7174 13.0631 51.6844 13.1122 51.6043 13.1654C51.5921 13.1227 51.6268 13.0759 51.706 13.0215Z" fill="#04162C"/>
<path d="M56.6356 5.31283C56.5662 5.33934 56.5294 5.29965 56.5156 5.1966C56.5588 5.1924 56.6018 5.23019 56.6356 5.31283Z" fill="#04162C"/>
<path d="M56.3119 5.17139C56.3386 5.20938 56.3211 5.26779 56.2627 5.34971C56.2371 5.31275 56.2525 5.25227 56.3119 5.17139Z" fill="#04162C"/>
</g>
<defs>
<clipPath id="clip0_121_53">
<rect width="105" height="52" fill="white"/>
</clipPath>
</defs>
</svg>
